<?xml version='1.0' encoding='iso-8859-1'?>
<!DOCTYPE svg PUBLIC '-//W3C//DTD SVG 1.1//EN' 'http://www.w3.org/Graphics/SVG/1.1/DTD/svg11.dtd'>
<svg version="1.1" xmlns="http://www.w3.org/2000/svg" viewBox="0 0 511.992 511.992" xmlns:xlink="http://www.w3.org/1999/xlink" enable-background="new 0 0 511.992 511.992">
  <g>
    <path d="m287.998,97.851v-62.672c0-16.354-18.555-25.786-31.784-16.171-35.293,25.651-59.654,64.675-64.213,110.839h64c17.671,0 31.997-14.325 31.997-31.996z"/>
    <path d="m511.791,136.617c-2.491-48.88-27.155-90.534-64.051-117.528-13.18-9.643-31.741-0.133-31.741,16.198v77.561c0,26.95-22.05,49-49,49h-78.997-64-32.003v49.75l-182.624,182.624c-12.5,12.492-12.499,32.758 0.001,45.25l48,48c6.242,6.25 14.438,9.375 22.625,9.375s16.383-2.625 22.625-8.875l182.625-182.125h66.747c5,0.002 9.233-0.082 13.917-0.478 84.584-7.158 150.197-83.975 145.876-168.752zm-415.79,296.23c-17.673,0-32-14.328-32-32 0-17.674 14.327-32 32-32 17.674,0 32,14.326 32,32 0,17.672-14.326,32-32,32zm176-191h-32l16-32h32l-16,32zm64,0h-32l16-32h32l-16,32zm64,0h-32l16-32h32l-16,32z"/>
  </g>
</svg>
