<?xml version="1.0" encoding="iso-8859-1"?>
<!-- Generator: Adobe Illustrator 18.0.0, SVG Export Plug-In . SVG Version: 6.00 Build 0)  -->
<!DOCTYPE svg PUBLIC "-//W3C//DTD SVG 1.1//EN" "http://www.w3.org/Graphics/SVG/1.1/DTD/svg11.dtd">
<svg version="1.1" id="Capa_1" xmlns="http://www.w3.org/2000/svg" xmlns:xlink="http://www.w3.org/1999/xlink" x="0px" y="0px"
	 viewBox="0 0 490 490" style="enable-background:new 0 0 490 490;" xml:space="preserve">
<g>
	<path d="M245.145,81.237c0-37.127-23.604-70.295-57.4-80.659c-3.041-0.934-6.346-0.368-8.901,1.523
		c-2.559,1.892-4.068,4.884-4.068,8.064v45.798h-45.468l-0.005-45.799c0-3.181-1.509-6.174-4.066-8.063
		c-2.559-1.892-5.862-2.458-8.902-1.523C82.535,10.942,58.932,44.11,58.932,81.237c0,28.332,13.015,55.155,35.059,72.77v181.664
		c-22.044,17.613-35.059,44.436-35.059,72.768c0,37.127,23.604,69.292,57.401,79.655c3.044,0.934,6.345,1.37,8.903-0.521
		c2.557-1.892,4.065-4.883,4.065-8.064v-45.797h45.473v45.797c0,3.182,1.548,6.122,4.067,8.064c2.549,1.966,6.342,2.307,8.902,1.523
		c33.807-10.329,57.4-43.53,57.4-80.658c0-28.332-13.014-55.155-35.059-72.768V154.007
		C232.131,136.393,245.145,109.569,245.145,81.237z M194.252,348.844c19.307,13.706,30.835,35.985,30.835,59.596
		c0,23.272-11.939,44.45-30.254,55.634v-40.39c0-5.538-4.49-10.028-10.029-10.028h-65.53c-5.538,0-10.029,4.49-10.029,10.028v40.39
		c-18.316-11.184-30.255-32.362-30.255-55.634c0-23.61,11.527-45.889,30.835-59.596c2.651-1.881,4.225-4.928,4.225-8.178V149.011
		c0-3.249-1.573-6.298-4.225-8.178c-19.308-13.706-30.835-35.985-30.835-59.596c0-23.272,11.938-44.453,30.257-55.635l0.004,40.392
		c0.001,5.538,4.491,10.028,10.029,10.028h65.524c5.539,0,10.029-4.49,10.029-10.029V25.604
		c18.315,11.182,30.254,32.362,30.254,55.633c0,23.61-11.528,45.891-30.835,59.596c-2.65,1.88-4.224,4.929-4.224,8.178v191.655
		C190.028,343.916,191.602,346.963,194.252,348.844z"/>
	<path d="M405.995,223.351V101.153l17.539-28.154c1.717-2.755,1.992-6.17,0.743-9.166l-24.07-57.667
		C398.648,2.432,394.999,0,390.952,0h-40.116c-4.047,0-7.696,2.432-9.255,6.166l-24.07,57.667c-1.249,2.996-0.973,6.411,0.743,9.166
		l17.539,28.154v122.197c-14.33,3.211-25.073,16.024-25.073,31.309v203.248c0,17.695,14.397,32.093,32.093,32.093h56.163
		c17.696,0,32.093-14.397,32.093-32.093V254.659C431.068,239.375,420.325,226.561,405.995,223.351z M357.518,20.059h26.753
		l19.503,46.727l-16.318,26.197c-0.992,1.591-1.517,3.429-1.517,5.302v124.282h-30.088V98.284c0-1.873-0.525-3.711-1.518-5.302
		l-16.318-26.197L357.518,20.059z M411.011,457.907c0,6.637-5.398,12.034-12.035,12.034h-56.163
		c-6.636,0-12.035-5.397-12.035-12.034V254.659c0-6.636,5.399-12.034,12.035-12.034h56.163c6.637,0,12.035,5.398,12.035,12.034
		V457.907z"/>
</g>
<g>
</g>
<g>
</g>
<g>
</g>
<g>
</g>
<g>
</g>
<g>
</g>
<g>
</g>
<g>
</g>
<g>
</g>
<g>
</g>
<g>
</g>
<g>
</g>
<g>
</g>
<g>
</g>
<g>
</g>
</svg>
